PathFileType	4	(X/Y/Z)	C:\Users\WrightLab\Desktop\Jo\P5V41.trc
DataRate	CameraRate	NumFrames	NumMarkers	Units	OrigDataRate	OrigDataStartFrame	OrigNumFrames
100.00	100.00	      20	19	mm	100.00	856	      1140
Frame#	Time	Headset_Front			Headset_Back			Headset_Left			Headset_Right			Left_Shoulder			Right_Shoulder			Sternum			C7			Left Elbow			Right Elbow			Left Wrist			Right Wrist			Left ASIS			Right ASIS			S2			Left Knee			Right Knee			Left Ankle			Right Ankle			
		X1	Y1	Z1	X2	Y2	Z2	X3	Y3	Z3	X4	Y4	Z4	X5	Y5	Z5	X6	Y6	Z6	X7	Y7	Z7	X8	Y8	Z8	X9	Y9	Z9	X10	Y10	Z10	X11	Y11	Z11	X12	Y12	Z12	X13	Y13	Z13	X14	Y14	Z14	X15	Y15	Z15	X16	Y16	Z16	X17	Y17	Z17	X18	Y18	Z18	X19	Y19	Z19	

856	8.550	-534.98865	1574.38733	747.22314	-672.60797	1620.40332	704.84656							-421.87665	1513.07471	474.58426	-823.93347	1457.27209	560.67053	-610.60895	1322.07874	595.50763	-657.61615	1527.72351	392.32693	-344.95041	1194.00964	452.15897	-900.97589	1166.56873	518.33972	-368.10950	964.93616	559.63898	-796.26782	1042.83569	691.73883	-469.29947	937.04724	591.98053	-750.33990	941.66034	596.09473	-607.37152	971.38263	325.58084	-508.68353	512.31873	598.45081	-803.84570	497.30380	524.58936	-604.88727	96.68145	540.42865	-749.60107	241.90770	207.82677	
857	8.560	-532.76392	1576.87671	745.81329	-670.02777	1624.43652	710.49078							-420.67188	1513.50073	480.95215	-822.35291	1459.21643	568.51959	-610.36017	1323.74731	602.51227	-641.74390	1764.27771	520.91791	-344.66873	1194.78625	461.52106	-900.16156	1169.36328	528.20819	-369.55957	965.37018	568.60760	-793.72723	1046.94849	700.61560	-467.30188	938.48340	598.07343	-750.92017	942.49237	601.99292	-608.89362	971.97510	332.28998	-503.62524	512.67450	600.16724	-807.75836	498.32022	541.19489	-604.89386	96.81232	540.42224	-754.77765	246.97237	225.25143	
858	8.570	-529.29279	1582.95764	758.66040	-667.71912	1627.96582	716.19159							-420.08218	1514.81482	485.17676	-821.33704	1461.33337	576.68030	-608.55402	1325.20483	609.06195	-655.92578	1529.24731	405.17679	-345.87680	1193.56104	469.44995	-900.95465	1172.01294	538.09686	-369.58945	967.37061	577.89508	-791.84320	1050.48853	710.19800	-464.50726	939.46649	605.26697	-749.91180	944.69824	610.49200	-610.30127	973.46130	338.19925	-498.27158	511.59793	600.66632	-811.38708	500.21387	559.79517	-604.45203	96.61406	540.51782	-759.80035	253.14392	241.92607	
859	8.580	-528.42480	1585.50818	757.77637	-665.39551	1631.54492	721.69836							-419.50107	1515.50122	490.16833	-819.54663	1462.88049	584.54962	-607.28259	1326.35510	615.73633	-655.70514	1529.96399	412.05978	-344.99051	1195.70911	478.87555	-899.43115	1173.22461	547.16547	-370.39267	967.74249	585.94843	-788.69806	1053.70728	718.78717	-465.07346	939.81879	605.87970	-747.93335	946.34131	618.46985	-611.82690	973.90320	344.87515	-493.22617	511.68024	601.79065	-813.59491	504.44470	581.25806	-604.39502	97.02522	540.60913	-765.05157	258.47250	258.92453	
860	8.590	-525.22113	1589.22668	763.07007	-663.21558	1634.69385	727.36621							-418.56213	1516.40686	495.51050	-817.92072	1464.54395	592.69128	-605.29211	1327.29004	622.29639	-635.87415	1767.81030	531.86707	-345.81583	1197.09888	483.67761	-899.62720	1175.66736	556.88910	-371.05795	969.64832	593.40857	-785.88300	1057.34705	727.53210	-463.09503	940.46552	609.24103	-746.12231	947.95331	626.78027	-613.61322	974.58771	351.32242	-487.77225	510.71689	602.92389	-813.24292	509.40530	604.50201	-604.34930	97.09581	540.63531	-770.72620	262.91998	278.10968	
861	8.600	-522.63977	1592.83130	770.26135	-660.20508	1637.69617	732.76099							-417.81247	1517.70313	499.35117	-816.68317	1466.21313	601.04413	-603.05591	1328.29041	628.48553	-654.87805	1531.54639	425.12918	-345.67752	1197.67261	491.90158	-899.71661	1177.99060	566.76093	-370.55148	971.00891	602.26440	-783.25928	1060.74280	736.87628	-461.19794	941.46094	613.83569	-744.65167	949.49683	635.42230	-615.73016	975.47571	357.12311	-482.80194	510.29861	602.73053	-810.94672	513.83575	628.73254	-604.28497	97.19198	540.67090	-776.10303	265.06726	297.66040	
862	8.610	-519.17834	1597.80933	780.46704	-657.51788	1640.78845	738.29083							-417.13651	1517.86755	503.78009	-813.69244	1467.03552	608.75977	-601.15546	1329.75024	634.96997	-654.78412	1532.29504	431.80856	-347.47839	1197.59277	494.77753	-898.29510	1179.28027	575.93170	-371.14029	972.62372	610.27087	-780.74274	1063.75220	745.77026	-458.91791	942.09692	617.25079	-745.75476	951.47620	644.44891	-617.17609	976.55902	362.61890	-476.96674	508.98230	602.92548	-807.73840	518.20142	653.04370	-604.37445	97.44759	540.60480	-781.40985	267.26761	319.07135	
863	8.620	-517.58508	1598.98120	780.12799	-655.35162	1643.76416	744.05402							-415.60577	1519.27930	508.49280	-813.32806	1469.02515	617.73376	-598.94934	1330.93762	641.01147	-631.92975	1771.17029	544.78406	-347.04910	1198.06189	502.56323	-898.68848	1181.72058	585.92273	-370.54483	974.87701	617.77423	-777.78937	1066.64783	755.05109	-456.76364	942.98230	620.23535	-744.60236	952.91510	653.51160	-618.46057	977.27637	369.26700	-471.41653	509.16312	603.76660	-802.42871	521.19391	676.69189	-604.00439	97.93964	540.88879	-786.84796	267.59470	340.12598	
864	8.630	-514.58551	1602.17163	786.20959	-652.59692	1646.42993	749.57550							-415.27133	1520.06616	511.72763	-809.91614	1469.44556	625.51764	-597.09998	1332.23523	647.08423	-654.61133	1533.78687	445.16321	-346.58325	1198.20337	506.44281	-896.26678	1182.33179	594.79980	-370.21448	977.11621	625.41821	-775.07886	1070.30786	764.34631	-455.17517	943.23126	624.27478	-742.75110	953.96924	662.57721	-619.76025	977.15363	376.12384	-466.27838	508.40591	604.08099	-797.25275	525.82031	699.12445	-603.35321	98.60083	542.34460	-792.25269	268.61072	362.66101	
865	8.640	-628.76868	1772.87891	553.47003	-650.08820	1649.14563	755.09747							-415.06979	1520.88770	516.04950	-807.65802	1470.34961	633.90204	-594.29211	1332.62085	653.12531	-654.51068	1534.57092	451.68762	-347.28351	1198.81409	510.96124	-896.17633	1184.24561	604.76196	-370.33411	978.13361	633.18195	-771.17010	1072.79492	772.52789	-453.49915	944.49695	628.91174				-620.95032	978.26184	382.68048	-460.58569	508.12411	604.26447	-790.82501	531.63318	719.54657	-603.13013	98.93509	542.29395	-796.79608	266.69382	384.92404	
866	8.650	-654.04248	1535.27039	457.71689	-647.90167	1651.35925	760.72260							-413.87213	1521.88660	519.93408	-806.52179	1471.80811	642.83612	-592.27490	1333.50549	659.18408	-628.49994	1773.80640	558.40131	-346.21817	1199.87402	515.03790	-893.47717	1184.55908	613.68427	-369.60992	980.43292	639.52051	-768.14899	1076.06421	781.16174	-452.42166	945.08362	632.45422	-743.61188	959.54529	683.14191	-622.54968	978.94861	389.17593	-455.04248	509.49866	606.04535	-784.15204	538.30951	738.10223	-603.01471	99.09955	542.34528	-801.55603	264.51706	408.35217	
867	8.660	-654.32806	1535.75903	464.67215	-644.82300	1653.28906	766.10669							-413.14511	1522.32471	524.50732	-803.25256	1472.31238	651.01001	-590.35126	1334.82556	665.25165				-345.49857	1201.14551	518.89001	-893.51495	1186.91101	623.99292	-368.60147	982.77869	647.88605	-764.67261	1078.18030	790.79865	-450.59888	945.64050	633.78546	-740.34088	960.40747	692.33484	-624.59418	980.27563	394.85922	-450.13782	510.11353	607.52795	-777.24799	546.41492	758.04987	-602.84125	100.55595	542.67297	-805.74414	261.17868	431.72256	
868	8.670	-654.27472	1536.44043	471.25699	-642.51215	1655.49280	771.79303							-412.61880	1522.73840	526.74219	-800.48462	1472.97461	659.41321	-587.41962	1335.48682	670.93170				-345.38791	1202.36780	526.10419	-891.15515	1187.73853	633.45026	-368.39630	983.98828	652.72729	-761.83490	1081.16833	800.41571	-447.42542	945.22498	634.49823	-736.79883	960.99316	701.42670	-626.23328	980.79175	402.11047	-445.47141	510.90347	610.39313	-768.22699	552.73370	774.79614	-602.99738	100.40353	542.78076	-809.97412	257.89719	456.14536	
869	8.680	-654.34155	1537.24792	478.05991	-640.19763	1658.28931	777.46155							-411.62073	1524.02600	530.17365	-799.26740	1474.51721	668.46307	-585.30591	1336.33923	676.87463				-345.15286	1202.27515	528.91113	-890.01306	1189.18665	643.48834	-367.82867	986.39789	663.13873	-757.56354	1083.21570	808.14026	-445.20154	946.45148	639.68933	-733.05133	961.42053	710.52490	-627.86469	980.67249	408.67355	-440.40973	511.47061	613.61584	-759.57117	558.61316	791.37518	-602.83539	100.92284	543.27673	-813.05847	252.62334	480.29691	
870	8.690	-654.34540	1537.72937	484.66263	-637.21252	1660.15332	783.18097							-410.99268	1524.21680	533.73889	-796.62762	1475.27551	677.01257	-582.25977	1336.75537	682.18854				-345.55008	1202.58838	533.00684	-887.92694	1189.82764	653.23810	-366.15262	988.06909	668.01685	-754.29346	1086.03882	817.84167	-444.41318	947.99683	643.85980	-729.42206	961.73883	719.58826	-630.56732	981.81152	414.63953	-436.64670	512.21521	617.39410	-750.02606	562.94098	806.11847	-602.64648	101.59277	543.41840	-816.04913	247.21637	505.50204	
871	8.700	-654.26910	1538.25830	491.26282	-633.67462	1661.65881	788.81372							-410.54501	1524.56372	537.60706	-793.17340	1475.65247	685.24353	-579.18744	1337.08789	687.81494				-345.16492	1202.79834	536.25952	-884.97046	1190.18530	662.76563	-363.81110	989.88605	673.23090	-750.01996	1087.61487	825.53772	-442.26474	948.86810	649.76691	-726.33276	962.78925	728.46368	-633.00739	982.54242	420.67987	-432.49887	513.05029	622.10815	-741.94464	568.18317	821.44110	-602.94238	102.58815	543.91284	-819.05566	241.25081	531.42590	
872	8.710	-654.10376	1538.79224	497.83148	-630.61102	1663.59546	794.71271							-409.72040	1525.26758	540.98828	-790.80585	1476.54626	693.91235	-576.86548	1337.82434	693.34344				-345.30042	1202.66638	541.40076	-883.57880	1191.77502	673.06781	-362.45892	991.24530	678.30872	-745.34857	1089.39893	834.40363	-440.37189	948.83759	653.15887	-721.85535	962.60608	736.33887	-635.60986	982.64886	427.69656	-430.00452	513.73895	626.96808	-732.78687	571.88831	834.57257	-603.06891	102.97444	543.84192	-821.33691	234.80038	557.53857	
873	8.720	-654.22064	1539.36572	504.72662	-627.24353	1665.06982	800.73199							-409.24652	1525.68506	544.01959	-789.02905	1477.54016	702.75140	-574.99701	1338.78674	699.16193				-344.91931	1203.16907	545.41724	-881.79291	1192.90894	683.35345	-360.69052	992.66339	682.80414	-740.68323	1090.89185	842.63464	-438.22504	950.14032	657.85437	-718.12305	962.92389	744.89948	-638.61438	983.43158	433.31454	-427.57108	513.51257	632.26678	-725.44196	577.15631	846.99072	-603.13287	103.13876	543.87201	-822.95355	227.16187	583.61926	
874	8.730	-653.87726	1539.59656	510.91791	-624.62701	1666.88611	807.14990							-408.57895	1525.79395	546.42914	-785.95172	1477.98621	711.02563	-571.73108	1338.69263	704.68530				-344.89392	1203.12708	547.02966	-878.28284	1192.79639	693.05396	-358.86707	994.85199	687.40076	-735.80353	1092.07507	850.50946	-435.56879	951.50360	661.07928	-714.79529	963.45422	753.43463	-641.46271	984.23181	438.62329	-426.84122	514.17523	639.06146	-717.35822	581.00122	857.89197	-603.11206	103.56725	544.00598	-823.92694	219.64647	610.99597	
875	8.740	-653.97168	1539.90942	517.80609	-621.08398	1668.82214	813.35339							-408.16507	1525.79993	550.00372	-782.36237	1478.23889	719.06348	-570.13904	1339.43372	710.62134				-344.84409	1203.49463	549.26782	-875.24438	1193.16138	703.04919	-357.20990	996.18500	692.02399	-731.34424	1093.60449	859.51849	-433.16739	952.68097	665.08228	-711.43164	963.99451	762.11340	-644.39972	984.88513	446.36926	-424.94897	514.81525	646.05969	-708.87354	583.77759	867.98541	-603.24799	104.19691	544.58350	-824.30139	212.17873	638.48834	
